<svg xmlns="http://www.w3.org/2000/svg" xmlns:xlink="http://www.w3.org/1999/xlink" version="1.1" id="Layer_1" x="0px" y="0px" viewBox="0 0 402.3 100" enable-background="new 0 0 402.3 100" xml:space="preserve" width="595.28px" height="147.97px"><g id="Cloud_Player"><g><linearGradient id="SVGID_1_" gradientUnits="userSpaceOnUse" x1="104" y1="106" x2="152" y2="154" gradientTransform="matrix(1 0 0 -1 0 154)"><stop offset="0" style="stop-color:#F16822"/><stop offset="1" style="stop-color:#F7981D"/></linearGradient><rect x="104" fill="url(#SVGID_1_)" width="48" height="48"/><g><path fill="#FFFFFF" d="M133.8 17.5c-0.4-0.6-0.9-1.1-0.9-2.2v-3.6c0-1.5 0.2-2.9-1-4c-0.9-0.9-2.4-1.2-3.6-1.2 c-2.2 0-4.8 0.9-5.3 3.6c0 0.3 0.2 0.5 0.4 0.5l2.3 0.2c0.2 0 0.4-0.2 0.4-0.4c0.2-0.9 1-1.4 1.9-1.4c0.5 0 1 0.2 1.3 0.6 c0.3 0.5 0.3 1.1 0.3 1.7v0.3c-1.4 0.1-3.2 0.2-4.5 0.8c-1.5 0.6-2.5 1.9-2.5 3.8c0 2.4 1.6 3.6 3.6 3.6c1.7 0 2.6-0.4 3.9-1.7 c0.5 0.7 0.6 1 1.4 1.6c0.2 0.1 0.4 0 0.6-0.1c0.5-0.4 1.4-1.1 1.7-1.5C134 18 134 17.7 133.8 17.5z M129.9 13.9h-0.1 c0 0.9 0 1.7-0.4 2.5c-0.4 0.7-1 1.1-1.6 1.1c-0.9 0-1.4-0.7-1.4-1.7c0-2 1.8-2.4 3.5-2.4V13.9z"/><g><path fill="#FFFFFF" d="M135 22c-1.8 1.3-4.5 2-6.7 2c-3.2 0-6.1-1.2-8.2-3.1c-0.2-0.2 0-0.4 0.2-0.2c2.3 1.3 5.2 2.1 8.2 2.1 c2 0 4.2-0.4 6.3-1.3C135 21.4 135.3 21.8 135 22z"/><path fill="#FFFFFF" d="M135.8 21.1c-0.2-0.3-1.5-0.1-2.1-0.1c-0.2 0-0.2-0.1 0-0.2c1-0.7 2.7-0.5 2.9-0.3 c0.2 0.2-0.1 1.9-1 2.7c-0.2 0.1-0.3 0.1-0.2-0.1C135.5 22.6 136 21.4 135.8 21.1z"/></g></g><g><rect x="112" y="38" fill="#FFFFFF" width="10" height="3"/><rect x="112" y="35" fill="#FFFFFF" width="10" height="2"/><rect x="112" y="32" fill="#FFFFFF" width="10" height="2"/><rect x="112" y="29" fill="#FFFFFF" width="10" height="2"/><rect x="123" y="38" fill="#FFFFFF" width="11" height="3"/><rect x="123" y="35" fill="#FFFFFF" width="11" height="2"/><rect x="135" y="38" fill="#FFFFFF" width="10" height="3"/><rect x="135" y="35" fill="#FFFFFF" width="10" height="2"/><rect x="135" y="32" fill="#FFFFFF" width="10" height="2"/></g></g></g><g id="Placeholder"><g><rect fill="#58595B" width="48" height="48"/><path fill="#404041" d="M35.7 8.8c0-0.4-0.3-0.6-0.6-0.5c0 0-15.4 2.8-15.7 2.9h-0.1c-0.3 0.1-0.6 0.5-0.6 0.9v18.8 c-0.9-0.4-2-0.6-3.2-0.4c-2.9 0.5-5.2 2.9-5.2 5.4s2.3 4.1 5.2 3.6s5.2-2.9 5.2-5.4c0-0.2 0-0.5-0.1-0.7V17.8 c0-0.4 0.3-0.7 0.6-0.8L33 14.9c0.4-0.1 0.6 0.2 0.6 0.5v12.8c-0.9-0.5-2-0.6-3.2-0.4c-2.9 0.5-5.2 2.9-5.2 5.4s2.3 4.1 5.2 3.6 s5.2-2.9 5.2-5.4c0-0.2 0-0.3 0-0.5c0-0.1 0-0.1 0-0.2L35.7 8.8L35.7 8.8z"/></g><g><path fill="#FFFFFF" d="M52 42.2c0-13.9 0-27.9 0-41.8C52 0.1 52 0 52.4 0c15.7 0 31.4 0 47.1 0c0.4 0 0.4 0.1 0.4 0.5 c0 13.9 0 27.9 0 41.8c-0.1 0.1-0.3 0.1-0.5 0.2c-0.2 0-0.3 0-0.5 0c-15.3 0-30.7 0-46 0C52.7 42.4 52.3 42.5 52 42.2z"/><path fill="#EE3C37" d="M52 42.2c16 0 32 0 48 0c0 1.8 0 3.6 0 5.4c0 0.3-0.1 0.4-0.4 0.4c-15.7 0-31.3 0-47 0 C52 48 52 48 52 47.4C52 45.7 52 43.9 52 42.2z"/><path fill="#080A0B" d="M69 21.2c-0.9-2.8-1.8-5.5-2.7-8.3c-0.3 1.1-0.7 2-1 2.9c-0.5 1.7-1.1 3.4-1.6 5.1 c-0.8 2.5-1.6 5.1-2.4 7.6c-0.1 0.4-0.1 1-0.4 1.2c-0.3 0.2-0.9 0.1-1.3 0.1c-1.4 0-2.8 0-4.2 0c-0.3 0-0.5 0-0.3-0.4 c2.6-7.7 5.1-15.3 7.6-23C63 5.7 63 5.7 63.8 5.7c1.9 0 3.8 0 5.7 0c0.3 0 0.4 0.1 0.5 0.3c2.3 6.9 4.6 13.9 6.9 20.8 c0.3 0.9 0.6 1.8 0.9 2.7c0.1 0.3 0 0.3-0.2 0.3c-1.9 0-3.7 0-5.6 0c-0.2 0-0.3-0.1-0.3-0.3c-0.3-1-0.7-2-1-3 c-0.1-0.3-0.2-0.3-0.5-0.3c-1.9 0-3.8 0-5.7 0c-0.2 0-0.3 0-0.5 0c0.4-1.3 0.7-2.5 1.1-3.7c0.1-0.3 0.2-0.5 0.2-0.7 c0-0.5 0.3-0.6 0.8-0.6C67 21.2 68 21.2 69 21.2z"/><path fill="#080A0B" d="M78.6 17.7c0-3.9 0-7.8 0-11.7c0-0.4 0.1-0.4 0.4-0.4c2.9 0 5.8 0 8.6 0c2.1 0 4.1 0.5 5.9 1.6 c1.4 0.9 2.4 2.2 2.9 3.8c0.7 2.4 0.7 4.8-0.4 7.2c-1 2-2.7 3.2-4.7 3.9c-1.2 0.4-2.4 0.6-3.7 0.6c-0.4 0-0.7 0.1-1.1 0.1 c-0.2 0-0.2-0.1-0.2-0.2c0-1.5 0-3 0-4.5c0-0.3 0.2-0.2 0.3-0.2c0.7-0.1 1.5-0.1 2.1-0.4c1.2-0.5 1.9-1.3 2.1-2.6 c0.2-1.2-0.1-2.2-0.9-3.1c-0.6-0.6-1.3-0.9-2.2-1c-1-0.2-2 0-3-0.1c-0.3 0-0.4 0.1-0.4 0.4c0 1.8 0 3.6 0 5.5c0 4.3 0 8.6 0 13 c0 0.4-0.1 0.5-0.5 0.5c-1.6 0-3.3 0-4.9 0c-0.4 0-0.4-0.1-0.4-0.4C78.6 25.5 78.6 21.6 78.6 17.7z"/></g></g><g><polygon fill="#35B3A6" points="100,100 52,100 52,52 100,52"/><path fill="#FFFFFF" d="M67.1 91.2v-0.9h-0.9v-1.4H65v1.4h-0.7v0.9H65v1.9c0 1.2 0.8 1.8 2.1 1.8v-1c-0.6 0-0.9-0.4-0.9-1v-1.7 L67.1 91.2L67.1 91.2z"/><polygon fill="#FFFFFF" points="83.6,90.3 83.6,94.8 82.9,94.8 82.9,90.3"/><path fill="#FFFFFF" d="M85.2 90.3V91l0 0c0.3-0.5 0.8-0.8 1.5-0.8c0.3 0 0.5 0 0.7 0.1c0.2 0.1 0.4 0.2 0.5 0.3s0.2 0.3 0.3 0.5 c0 0.2 0.1 0.4 0.1 0.7v2.9h-0.7v-3c0-0.3-0.1-0.5-0.2-0.7c-0.2-0.2-0.4-0.2-0.7-0.2c-0.2 0-0.4 0-0.6 0.1 c-0.2 0.1-0.3 0.2-0.4 0.3c-0.1 0.1-0.2 0.3-0.2 0.4c-0.1 0.2-0.1 0.4-0.1 0.6v2.5h-0.7v-4.5L85.2 90.3L85.2 90.3z"/><path fill="#FFFFFF" d="M70.8 94.8v-0.6l0 0c-0.2 0.3-0.4 0.4-0.6 0.6C70 94.9 69.7 95 69.4 95s-0.6 0-0.8-0.1s-0.4-0.2-0.5-0.4 c-0.1-0.2-0.2-0.4-0.3-0.6c0-0.2-0.1-0.5-0.1-0.8v-2.7h1.2v2.5c0 0.4 0.1 0.6 0.2 0.8c0.1 0.2 0.3 0.3 0.6 0.3s0.6-0.1 0.7-0.3 c0.2-0.2 0.2-0.5 0.2-1v-2.3h1.2v4.5L70.8 94.8L70.8 94.8z"/><path fill="#FFFFFF" d="M74 90.3v0.6l0 0c0.2-0.3 0.4-0.4 0.6-0.6c0.2-0.1 0.5-0.2 0.8-0.2s0.6 0 0.8 0.1s0.4 0.2 0.5 0.4 s0.2 0.4 0.3 0.6c0 0.2 0.1 0.5 0.1 0.8v2.7h-1.2v-2.5c0-0.4-0.1-0.6-0.2-0.8c-0.1-0.2-0.3-0.3-0.6-0.3s-0.6 0.1-0.7 0.3 c-0.1 0.2-0.2 0.5-0.2 1v2.3H73v-4.5L74 90.3L74 90.3z"/><path fill="#FFFFFF" d="M80.5 91.3c-0.1-0.2-0.4-0.2-0.7-0.2c-0.2 0-0.4 0-0.5 0.1s-0.2 0.1-0.3 0.2s-0.1 0.2-0.2 0.3 c0 0.1-0.1 0.2-0.1 0.3h2C80.8 91.7 80.7 91.5 80.5 91.3L80.5 91.3z M79.1 93.7c0.2 0.2 0.4 0.3 0.8 0.3c0.2 0 0.5-0.1 0.6-0.2 c0.2-0.1 0.3-0.3 0.3-0.4h1.1c-0.2 0.5-0.4 0.9-0.8 1.1c-0.4 0.2-0.8 0.3-1.3 0.3c-0.4 0-0.7-0.1-1-0.2s-0.5-0.3-0.7-0.5 s-0.3-0.5-0.5-0.7c-0.1-0.3-0.2-0.6-0.2-1c0-0.3 0.1-0.6 0.2-0.9c0.1-0.3 0.3-0.5 0.5-0.7c0.2-0.2 0.4-0.4 0.7-0.5 c0.3-0.1 0.6-0.2 0.9-0.2c0.4 0 0.7 0.1 1 0.2c0.3 0.1 0.5 0.3 0.7 0.6c0.2 0.2 0.3 0.5 0.4 0.8c0.1 0.3 0.1 0.6 0.1 1h-3.2 C78.8 93.2 78.9 93.5 79.1 93.7L79.1 93.7z"/><path fill="#FFFFFF" d="M83.7 88.9c0 0.3-0.2 0.5-0.5 0.5s-0.5-0.2-0.5-0.5s0.2-0.5 0.5-0.5S83.7 88.7 83.7 88.9"/><path fill="#FFFFFF" d="M64.4 67.5c0-0.2 0.2-0.4 0.4-0.4h11.3c2 0 3.7 1.7 3.7 3.7v3.3c0 0.2-0.2 0.4-0.4 0.4l0 0H68.1 c-2 0-3.7-1.7-3.7-3.7V67.5L64.4 67.5z"/><path fill="#FFFFFF" d="M84.6 67.1h3.2c0.2 0 0.4 0.2 0.4 0.4v3.3c0 2-1.7 3.7-3.7 3.7h-3.2c-0.2 0-0.4-0.2-0.4-0.4v-3.3 C80.9 68.7 82.5 67.1 84.6 67.1"/><path fill="#FFFFFF" d="M79.4 75.5h-6.5c-0.2 0-0.4 0.2-0.4 0.4v6.6c0 0.2 0.2 0.4 0.4 0.4h3.2c2 0 3.7-1.7 3.7-3.7v-3.3 C79.8 75.7 79.6 75.5 79.4 75.5"/><path fill="#FFFFFF" d="M80.4 61.6c0 2.3-1.9 4.2-4.2 4.2S72 63.9 72 61.6s1.9-4.2 4.2-4.2C78.5 57.3 80.4 59.2 80.4 61.6 L80.4 61.6z"/></g><g><rect x="104" y="52" fill="#808184" width="48" height="48"/><g><path fill="#58595B" d="M117.6 78.7l-0.1-0.5c-0.2 0.2-0.5 0.4-0.8 0.5c-0.3 0.1-0.6 0.2-0.8 0.2c-0.5 0-0.8-0.1-1.1-0.4 s-0.4-0.6-0.4-1c0-0.5 0.2-0.8 0.5-1.1s0.8-0.4 1.3-0.4c0.4 0 0.8 0.1 1.2 0.2v-0.6c0-0.3-0.1-0.6-0.2-0.7 c-0.2-0.1-0.4-0.2-0.8-0.2c-0.5 0-1.1 0.1-1.7 0.3v-0.7c0.2-0.1 0.5-0.2 0.8-0.3s0.7-0.1 1-0.1c0.6 0 1.1 0.1 1.3 0.4 c0.3 0.3 0.4 0.6 0.4 1.2V79L117.6 78.7L117.6 78.7z M116.1 78.1c0.4 0 0.9-0.2 1.3-0.5v-1c-0.3-0.1-0.7-0.1-1-0.1 c-0.7 0-1.1 0.3-1.1 0.8c0 0.2 0.1 0.4 0.2 0.6C115.7 78.1 115.9 78.1 116.1 78.1z"/><path fill="#58595B" d="M126 78.7v-3.3c0-0.3-0.1-0.6-0.2-0.7c-0.1-0.2-0.3-0.2-0.6-0.2c-0.5 0-0.9 0.1-1.4 0.4V75 c0 0.1 0 0.1 0 0.2v3.5h-1v-3.3c0-0.3-0.1-0.6-0.2-0.7c-0.1-0.2-0.3-0.2-0.6-0.2c-0.5 0-1 0.1-1.4 0.4v3.8h-1v-4.9h0.8l0.1 0.5 c0.6-0.4 1.2-0.6 1.8-0.6c0.6 0 1 0.2 1.2 0.7c0.6-0.5 1.3-0.7 1.9-0.7c0.4 0 0.8 0.1 1 0.4c0.2 0.2 0.4 0.6 0.4 1.1v3.6L126 78.7 L126 78.7z"/><path fill="#58595B" d="M128.4 78.7v-7.1h1v2.7c0.5-0.4 1-0.6 1.6-0.6s1.1 0.2 1.5 0.7c0.4 0.4 0.5 1.1 0.5 1.8 c0 0.8-0.2 1.4-0.6 1.9s-0.9 0.7-1.5 0.7s-1.1-0.2-1.5-0.6l-0.1 0.5L128.4 78.7L128.4 78.7z M130.6 74.5c-0.5 0-0.9 0.1-1.3 0.4 v2.7c0.4 0.3 0.8 0.5 1.3 0.5c0.9 0 1.3-0.6 1.3-1.8c0-0.6-0.1-1.1-0.3-1.4C131.4 74.6 131 74.5 130.6 74.5z"/><path fill="#58595B" d="M134.7 76.5c0 0.6 0.1 1 0.4 1.2c0.3 0.3 0.7 0.4 1.2 0.4s1-0.1 1.5-0.3v0.7c-0.5 0.2-1 0.4-1.7 0.4 c-0.8 0-1.4-0.2-1.8-0.7c-0.4-0.4-0.6-1.1-0.6-1.9s0.2-1.4 0.6-1.9s1-0.7 1.7-0.7c0.6 0 1.1 0.2 1.4 0.5c0.3 0.3 0.5 0.8 0.5 1.5 c0 0.3 0 0.6-0.1 0.8H134.7L134.7 76.5z M136 74.4c-0.4 0-0.7 0.1-0.9 0.4c-0.2 0.2-0.4 0.6-0.4 1.1h2.4c0-0.1 0-0.1 0-0.2 c0-0.4-0.1-0.7-0.3-0.9C136.7 74.5 136.4 74.4 136 74.4z"/><path fill="#58595B" d="M139.1 78.7v-4.9h0.8l0.1 0.7c0.2-0.2 0.3-0.3 0.5-0.4s0.3-0.2 0.5-0.2c0.2-0.1 0.3-0.1 0.5-0.1 c0.1 0 0.3 0 0.4 0v0.9c-0.2 0-0.4 0-0.5 0c-0.5 0-1 0.2-1.3 0.5v3.6h-1V78.7z"/></g></g><g><g><path d="M245.8 45.5c-8.4 6.2-20.6 9.5-31.1 9.5c-14.7 0-28-5.4-38-14.5c-0.8-0.7-0.1-1.7 0.9-1.1c10.8 6.3 24.2 10.1 38 10.1 c9.3 0 19.6-1.9 29-5.9C246 42.9 247.2 44.5 245.8 45.5L245.8 45.5z"/><path d="M249.3 41.5c-1.1-1.4-7.1-0.7-9.8-0.3c-0.8 0.1-0.9-0.6-0.2-1.1c4.8-3.4 12.7-2.4 13.6-1.3s-0.2 9-4.8 12.8 c-0.7 0.6-1.4 0.3-1-0.5C248.1 48.6 250.4 42.9 249.3 41.5L249.3 41.5z"/><path d="M239.6 16.2v-3.3c0-0.5 0.4-0.8 0.8-0.8h14.7c0.5 0 0.8 0.3 0.8 0.8v2.8c0 0.5-0.4 1.1-1.1 2.1l-7.6 10.9 c2.8-0.1 5.8 0.4 8.4 1.8c0.6 0.3 0.7 0.8 0.8 1.3v3.5c0 0.5-0.5 1-1.1 0.8c-4.5-2.4-10.5-2.6-15.6 0c-0.5 0.3-1-0.3-1-0.8v-3.4 c0-0.5 0-1.4 0.5-2.3l8.8-12.7h-7.7C240 17 239.7 16.6 239.6 16.2L239.6 16.2z"/><path d="M185.9 36.7h-4.5c-0.4 0-0.8-0.3-0.8-0.8v-23c0-0.5 0.4-0.8 0.9-0.8h4.2c0.4 0 0.8 0.4 0.8 0.8v3h0.1 c1.1-2.9 3.1-4.3 5.9-4.3s4.6 1.4 5.8 4.3c1.1-2.9 3.6-4.3 6.2-4.3c1.9 0 3.9 0.8 5.2 2.5c1.4 1.9 1.1 4.7 1.1 7.2v14.5 c0 0.5-0.4 0.8-0.9 0.8h-4.5c-0.5 0-0.8-0.4-0.8-0.8V23.6c0-1 0.1-3.4-0.1-4.3c-0.3-1.5-1.3-2-2.6-2c-1.1 0-2.2 0.7-2.7 1.9 c-0.5 1.2-0.4 3.1-0.4 4.4v12.2c0 0.5-0.4 0.8-0.9 0.8h-4.5c-0.5 0-0.8-0.4-0.8-0.8V23.6c0-2.6 0.4-6.3-2.8-6.3 c-3.2 0-3.1 3.7-3.1 6.3v12.2C186.8 36.3 186.4 36.7 185.9 36.7L185.9 36.7z"/><path d="M268.8 16.3c-3.3 0-3.5 4.5-3.5 7.3s0 8.8 3.5 8.8s3.6-4.8 3.6-7.8c0-1.9-0.1-4.3-0.7-6.1 C271.2 16.9 270.2 16.3 268.8 16.3L268.8 16.3z M268.7 11.6c6.6 0 10.2 5.7 10.2 13c0 7-4 12.6-10.2 12.6 c-6.5 0-10.1-5.7-10.1-12.8C258.6 17.2 262.2 11.6 268.7 11.6L268.7 11.6z"/><path d="M287.6 36.7h-4.5c-0.4 0-0.8-0.4-0.8-0.8v-23c0-0.4 0.4-0.8 0.9-0.8h4.2c0.4 0 0.7 0.3 0.8 0.6v3.5h0.1 c1.3-3.1 3-4.6 6.1-4.6c2 0 4 0.7 5.2 2.7c1.2 1.8 1.2 4.9 1.2 7.2v14.4c0 0.4-0.4 0.7-0.9 0.7h-4.5c-0.4 0-0.7-0.3-0.8-0.7V23.5 c0-2.5 0.3-6.2-2.8-6.2c-1.1 0-2.1 0.7-2.6 1.8c-0.6 1.4-0.7 2.8-0.7 4.4v12.3C288.5 36.3 288.1 36.7 287.6 36.7L287.6 36.7z"/><path d="M235.8 32.4c-0.8-1.2-1.7-2.1-1.7-4.2v-7c0-2.9 0.2-5.7-2-7.7c-1.7-1.6-4.5-2.2-6.7-2.2c-4.2 0-9 1.6-10 6.9 c-0.1 0.5 0.3 0.8 0.7 0.9l4.3 0.5c0.4 0 0.7-0.4 0.8-0.8c0.4-1.8 1.9-2.7 3.6-2.7c0.9 0 2 0.4 2.5 1.2c0.6 0.9 0.5 2.1 0.5 3.2 v0.6c-2.6 0.3-6 0.5-8.4 1.6c-2.8 1.2-4.8 3.7-4.8 7.3c0 4.7 2.9 7 6.7 7c3.2 0 4.9-0.8 7.4-3.3c0.8 1.2 1.1 1.8 2.6 3 c0.4 0.2 0.8 0.2 1.1-0.1c0.9-0.8 2.6-2.2 3.4-3C236.2 33.3 236.1 32.8 235.8 32.4z M228 25.7L228 25.7c-0.1 1.7-0.1 3.2-0.9 4.8 c-0.7 1.3-1.8 2-3.1 2c-1.7 0-2.7-1.3-2.7-3.2c0-3.8 3.4-4.5 6.7-4.5V25.7z"/><path d="M177.1 32.4c-0.8-1.2-1.7-2.1-1.7-4.2v-7c0-2.9 0.2-5.7-2-7.7c-1.7-1.6-4.5-2.2-6.7-2.2c-4.2 0-9 1.6-10 6.9 c-0.1 0.5 0.3 0.8 0.7 0.9l4.3 0.5c0.4 0 0.7-0.4 0.8-0.8c0.4-1.8 1.9-2.7 3.6-2.7c0.9 0 2 0.4 2.5 1.2c0.6 0.9 0.5 2.1 0.5 3.2 v0.6c-2.6 0.3-6 0.5-8.4 1.6c-2.8 1.2-4.8 3.7-4.8 7.3c0 4.7 2.9 7 6.7 7c3.2 0 4.9-0.8 7.4-3.3c0.8 1.2 1.1 1.8 2.6 3 c0.4 0.2 0.8 0.2 1.1-0.1c0.9-0.8 2.5-2.2 3.4-3C177.5 33.3 177.4 32.8 177.1 32.4z M169.3 25.7h-0.1c0 1.7 0 3.2-0.8 4.8 c-0.7 1.3-1.8 2-3.1 2c-1.7 0-2.7-1.3-2.7-3.2c0-3.8 3.4-4.5 6.7-4.5V25.7z"/></g><linearGradient id="SVGID_2_" gradientUnits="userSpaceOnUse" x1="356.5" y1="100" x2="356.5" y2="62.9" gradientTransform="matrix(1 0 0 -1 0 100)"><stop offset="0" style="stop-color:#00C1DE"/><stop offset="0.2082" style="stop-color:#00BDDC"/><stop offset="0.4239" style="stop-color:#00B1D4"/><stop offset="0.6431" style="stop-color:#009CC7"/><stop offset="0.8632" style="stop-color:#007FB4"/><stop offset="1" style="stop-color:#0069A6"/></linearGradient><path fill="url(#SVGID_2_)" d="M310.7 24.2c0-7.4 4.1-12.7 10.3-12.7c6.4 0 10.1 4.9 10.1 12.7v1.1h-15.8c0.1 4.6 2.9 8 7.7 8 c2.3 0 4.3-0.7 6-1.7l1.4 3.2c-2.3 1.4-5.3 2.2-8.1 2.2C314.4 37.1 310.7 31.2 310.7 24.2z M326.5 22c-0.1-3.4-1.8-6.8-5.4-6.8 c-3.5 0-5.6 3.1-5.7 6.8H326.5z M333.1 24.6c0-7.3 5-13.1 12.4-13.1c2.6 0 4.8 0.7 6.3 1.5v4c-1.7-1.1-3.5-1.8-5.9-1.8 c-5 0-8.1 3.9-8.1 9c0 5.7 3 9 7.7 9c2.5 0 4.2-0.8 5.8-1.7l1.3 3.2c-1.8 1.2-4.6 2.3-7.7 2.3C337.3 37.1 333.1 31.5 333.1 24.6z M355.8 0h4.5v15.1c2.4-2.1 5.2-3.6 8.3-3.6c3.8 0 7.4 2.3 7.4 8.7v16.4h-4.5V21.7c0-3.5-0.9-6.1-4.2-6.1c-2.5 0-4.9 1.4-7 3.3 v17.7h-4.5V0z M379.1 24.3c0-7.2 4.6-12.8 11.6-12.8c6.9 0 11.6 5.6 11.6 12.8s-4.6 12.8-11.6 12.8 C383.7 37.1 379.1 31.5 379.1 24.3z M397.6 24.3c0-5.3-2.6-9-6.9-9c-4.3 0-6.9 3.8-6.9 9s2.6 9 6.9 9S397.6 29.6 397.6 24.3z"/></g><rect id="C6002B" y="52" fill="#C6002B" width="48" height="48"/><g id="IHR"><g><g><path fill="#FFFFFF" d="M32.1 62.5c-3.4 0-6.4 1.8-8.1 4.4c-1.7-2.6-4.7-4.4-8.1-4.4c-5.3 0-9.7 4.3-9.7 9.7c0 3 1.6 6 3.8 7.7 c0.1 0.1 5.5 5.1 10.3 9.5v-7.1c0-4.8 7.4-4.8 7.4 0v7.2l9.7-9.2c2.4-1.9 4.4-4.7 4.4-8.1C41.8 66.9 37.5 62.5 32.1 62.5z M15.3 79.8C15.2 80 15 80 14.8 80s-0.3-0.1-0.4-0.2c-2.9-2.6-4.4-5.2-4.4-7.9l0 0c0-2.3 1.4-5 3.3-6.2c0.3-0.2 0.7-0.1 0.9 0.2 c0.2 0.3 0.1 0.7-0.2 0.9c-1.5 0.9-2.7 3.1-2.7 5l0 0c0 2.3 1.3 4.6 3.9 6.9C15.5 79.1 15.6 79.6 15.3 79.8z M19.6 77.3 c-0.1 0.2-0.4 0.3-0.6 0.3c-0.1 0-0.2 0-0.3-0.1c-2-1.1-3.3-3.2-3.3-5.4l0 0l0 0c0-2 1.1-3.8 2.9-4.8c0.3-0.2 0.7 0 0.9 0.3 s0 0.7-0.3 0.9c-1.3 0.7-2.2 2.1-2.2 3.6c0 1.6 1 3.3 2.6 4.2C19.7 76.6 19.8 77 19.6 77.3z M24 75.6c-1.6 0-2.9-1.3-2.9-2.9 c0-1.6 1.3-2.9 2.9-2.9c1.6 0 2.9 1.3 2.9 2.9S25.6 75.6 24 75.6z M29.3 77.6c-0.1 0.1-0.2 0.1-0.3 0.1c-0.2 0-0.5-0.1-0.6-0.3 c-0.2-0.3-0.1-0.7 0.3-0.9c1.6-0.9 2.6-2.6 2.6-4.2c0-1.5-0.8-2.9-2.2-3.6c-0.3-0.2-0.5-0.6-0.3-0.9c0.2-0.3 0.6-0.5 0.9-0.3 c1.8 0.9 2.9 2.8 2.9 4.8l0 0C32.6 74.4 31.2 76.5 29.3 77.6z M38 71.9c0 2.7-1.5 5.4-4.4 7.9c-0.1 0.1-0.3 0.2-0.4 0.2 c-0.2 0-0.4-0.1-0.5-0.2c-0.2-0.3-0.2-0.7 0.1-0.9c2.6-2.3 3.9-4.6 3.9-6.9l0 0c0-1.9-1.2-4.1-2.7-5c-0.3-0.2-0.4-0.6-0.2-0.9 c0.2-0.3 0.6-0.4 0.9-0.2C36.6 66.9 38 69.6 38 71.9L38 71.9z"/></g></g></g><g><g id="PrimeTM_xA0_Clipping_Path_8_"><g><path fill="#46A1C5" d="M234.6 88.1c-0.4-0.7-1.2-1-2.3-1c-0.7 0-1.4 0-2.1 0c-1.2 0-2 0-2.4 0.1c-0.2 0-0.2 0.1-0.3 0.2l0 0.1 c-0.4 1.6-0.9 3.1-1.4 4.6c-0.2 0.5-0.4 1.3-0.8 2.3c-0.4 1-0.6 1.8-0.8 2.3c0 0.1 0 0.2 0.1 0.2c0.3 0 0.7 0 1.3 0 c0.6 0 1 0 1.3 0c0.1 0 0.2-0.1 0.2-0.2c0.1-0.2 0.1-0.5 0.2-0.9c0.1-0.4 0.2-0.7 0.3-0.9c0.1-0.2 0.2-0.3 0.4-0.3 c0.2 0 0.5 0 0.8 0c0.4 0 0.6 0 0.8 0c1.1 0 2.1-0.4 3-1.1c0.8-0.7 1.4-1.6 1.8-2.7C235.1 89.6 235 88.7 234.6 88.1z M231.9 90.8 c-0.3 1-1 1.5-2 1.5c-0.8 0-1.2 0-1.2-0.1c0-0.1 0.1-0.4 0.2-0.6c0.1-0.3 0.1-0.5 0.2-0.6c0.3-1 0.5-1.5 0.6-1.6 c0.1-0.1 0.5-0.1 1.2-0.1C231.9 89.2 232.3 89.7 231.9 90.8z M239.6 91.9c0-0.1 0.1-0.3 0.2-0.5c0.1-0.2 0.1-0.4 0.2-0.5 c0-0.1 0.1-0.3 0.2-0.6c0.1-0.2 0.2-0.4 0.2-0.6c0-0.1-0.1-0.2-0.3-0.2c-0.4 0-0.9 0.1-1.4 0.4c-0.5 0.2-0.7 0.4-0.7 0.4 c-0.1 0-0.1-0.1 0-0.4c0.1-0.3 0.1-0.4 0-0.4c0 0-0.4 0.1-1.2 0.2c-0.5 0.1-0.9 0.1-1.2 0.2c-0.1 0-0.1 0.1-0.2 0.1 c0 0 0 0.1 0 0.1c0 0.7-0.2 1.6-0.6 2.7c-0.1 0.4-0.3 0.9-0.6 1.7c-0.2 0.7-0.4 1.3-0.6 1.7c0 0.1 0 0.2 0.2 0.2c0.3 0 0.6 0 1 0 c0.5 0 0.8 0 1 0c0.2 0 0.3-0.1 0.3-0.2c0-0.1 0.1-0.3 0.2-0.6c0.1-0.3 0.1-0.5 0.2-0.6c0.1-0.2 0.2-0.5 0.3-0.9 c0.1-0.4 0.2-0.7 0.3-0.9c0.1-0.4 0.3-0.6 0.5-0.7c0.2-0.1 0.5-0.2 0.8-0.2c0.1 0 0.2 0 0.4 0c0.2 0 0.3 0 0.4 0 C239.4 92.2 239.5 92.1 239.6 91.9z M242.8 89c0.9 0 1.5-0.4 1.8-1.2c0.1-0.4 0.1-0.6-0.1-0.9c-0.2-0.2-0.5-0.3-0.8-0.3 c-0.4 0-0.7 0.1-1.1 0.3c-0.4 0.2-0.6 0.5-0.7 0.9c-0.1 0.4-0.1 0.7 0.1 0.9C242.1 88.9 242.4 89 242.8 89z M243.9 89.7 c0-0.1 0-0.1-0.1-0.1c-0.1 0-0.3 0-0.6 0c-0.3 0-0.5 0-0.6 0c-0.1 0-0.3 0-0.6 0c-0.2 0-0.4 0-0.6 0c-0.1 0-0.2 0-0.2 0.1 c0 0 0 0.1 0 0.1c-0.2 0.8-0.5 1.8-0.9 3.1c-0.1 0.3-0.3 0.8-0.5 1.5c-0.2 0.6-0.4 1.1-0.5 1.4c0 0.1-0.1 0.2-0.1 0.2 c0 0 0.1 0.1 0.2 0.1c0.1 0 0.5 0 1.1 0c0.6 0 0.9 0 1.1 0c0.1 0 0.2-0.1 0.2-0.2c0.1-0.3 0.3-0.8 0.5-1.5 c0.2-0.7 0.4-1.2 0.5-1.5c0.4-1.2 0.8-2.2 1.2-3.1C243.9 89.8 243.9 89.7 243.9 89.7z M255.6 89.7c-0.3-0.3-0.7-0.4-1.3-0.4 c-0.4 0-0.9 0.1-1.4 0.3c-0.5 0.2-0.9 0.5-1.3 0.8c0-0.4-0.1-0.7-0.4-0.9c-0.3-0.2-0.6-0.3-1-0.3c-0.4 0-0.8 0.1-1.2 0.3 c-0.3 0.1-0.7 0.3-1.2 0.7c-0.1 0-0.1 0.1-0.2 0.1c0 0 0-0.2 0.1-0.5c0.1-0.3 0.1-0.5 0-0.5c-0.1 0-0.3 0-0.6 0.1 c-0.4 0.1-0.5 0.1-0.6 0.1c-0.1 0-0.3 0-0.6 0.1c-0.3 0-0.5 0.1-0.6 0.1c-0.1 0-0.1 0.1-0.1 0.2c0 0 0 0.1 0 0.1 c-0.2 1-0.4 1.8-0.7 2.6c-0.1 0.4-0.3 0.9-0.6 1.7c-0.3 0.7-0.4 1.3-0.6 1.7c0 0.1-0.1 0.2 0 0.2c0 0 0.1 0 0.2 0 c0.4 0 0.7 0 1 0c0.5 0 0.8 0 1 0c0.1 0 0.2 0 0.2-0.1c0 0 0.1-0.1 0.1-0.2c0.1-0.4 0.3-1 0.6-1.9c0.3-0.8 0.5-1.5 0.6-1.9 c0.1-0.2 0.3-0.4 0.6-0.5c0.3-0.2 0.5-0.2 0.7-0.2c0.5 0 0.6 0.3 0.4 1c-0.1 0.2-0.1 0.4-0.2 0.8c-0.1 0.3-0.2 0.6-0.2 0.8 c-0.1 0.2-0.2 0.5-0.4 1c-0.2 0.4-0.3 0.8-0.4 1c-0.1 0.2 0 0.3 0.1 0.3h2.1c0.1 0 0.2-0.1 0.3-0.2c0.1-0.2 0.2-0.6 0.3-1 c0.1-0.4 0.2-0.8 0.3-1c0.3-0.9 0.5-1.5 0.6-1.7c0.1-0.2 0.3-0.4 0.6-0.6c0.3-0.2 0.5-0.3 0.7-0.3c0.5 0 0.7 0.3 0.5 0.8 c-0.1 0.3-0.3 0.9-0.6 1.7c-0.1 0.2-0.2 0.5-0.3 1c-0.2 0.4-0.3 0.7-0.3 1c-0.1 0.2 0 0.3 0.1 0.3c0.1 0 0.5 0 1 0 c0.5 0 0.9 0 1 0c0.1 0 0.2-0.1 0.3-0.3c0.1-0.3 0.2-0.7 0.4-1.3c0.2-0.6 0.3-1 0.4-1.3c0.1-0.2 0.2-0.6 0.4-1.1 c0.2-0.5 0.3-0.9 0.4-1.1C256 90.5 255.9 90.1 255.6 89.7z M262.7 90.1c-0.4-0.6-1-1-1.9-1c-1.1 0-2 0.4-2.9 1.1 c-0.8 0.7-1.4 1.6-1.8 2.6c-0.4 1.1-0.3 2 0.2 2.6c0.5 0.6 1.2 1 2.3 1c1.2 0 2.2-0.3 2.9-0.9c0.1-0.1 0.1-0.1 0.2-0.2 c0-0.1 0-0.4-0.1-0.8c-0.1-0.4-0.2-0.7-0.2-0.7c-0.2 0.1-0.4 0.2-0.6 0.3c-0.5 0.2-0.9 0.3-1.4 0.3c-0.3 0-0.6-0.1-0.8-0.2 c-0.3-0.2-0.4-0.4-0.4-0.7c1.1-0.1 1.9-0.1 2.5-0.2c0.9-0.1 1.4-0.1 1.5-0.1c0.3-0.1 0.6-0.3 0.7-0.8 C263.1 91.5 263.1 90.8 262.7 90.1z M260.5 92c0 0.1-0.1 0.1-0.3 0.1c-0.7 0.1-1.3 0.1-1.6 0.1c-0.1 0-0.2-0.1-0.1-0.2 c0.1-0.3 0.3-0.6 0.5-0.8c0.3-0.2 0.5-0.4 0.8-0.4c0.3 0 0.5 0.1 0.6 0.3C260.6 91.5 260.6 91.7 260.5 92z"/></g></g><g><path fill-rule="evenodd" clip-rule="evenodd" fill="#404041" d="M217.8 90.5c-5.8 4.3-14.2 6.5-21.4 6.5 c-10.1 0-19.2-3.7-26.1-10c-0.5-0.5-0.1-1.2 0.6-0.8c7.4 4.3 16.6 6.9 26.2 6.9c6.4 0 13.5-1.3 19.9-4.1 C217.9 88.7 218.7 89.8 217.8 90.5z"/><path fill-rule="evenodd" clip-rule="evenodd" fill="#404041" d="M220.2 87.7c-0.7-0.9-4.9-0.4-6.8-0.2c-0.6 0.1-0.7-0.4-0.1-0.8 c3.3-2.3 8.7-1.7 9.4-0.9c0.6 0.8-0.2 6.2-3.3 8.8c-0.5 0.4-0.9 0.2-0.7-0.3C219.4 92.6 220.9 88.7 220.2 87.7z"/><path fill-rule="evenodd" clip-rule="evenodd" fill="#404041" d="M213.6 70.3V68c0-0.3 0.3-0.6 0.6-0.6l10.1 0 c0.3 0 0.6 0.2 0.6 0.6l0 1.9c0 0.3-0.3 0.8-0.8 1.4l-5.2 7.5c1.9 0 4 0.2 5.8 1.2c0.4 0.2 0.5 0.6 0.5 0.9v2.4 c0 0.3-0.4 0.7-0.7 0.5c-3.1-1.6-7.3-1.8-10.7 0c-0.4 0.2-0.7-0.2-0.7-0.5v-2.3c0-0.4 0-1 0.4-1.5l6.1-8.7h-5.3 C213.8 70.8 213.6 70.6 213.6 70.3z"/><path fill-rule="evenodd" clip-rule="evenodd" fill="#404041" d="M176.6 84.4h-3.1c-0.3 0-0.5-0.2-0.5-0.5l0-15.8 c0-0.3 0.3-0.6 0.6-0.6h2.9c0.3 0 0.5 0.2 0.6 0.5v2.1h0.1c0.7-2 2.2-2.9 4.1-2.9c1.9 0 3.1 0.9 4 2.9c0.8-2 2.4-2.9 4.3-2.9 c1.3 0 2.7 0.5 3.6 1.7c1 1.3 0.8 3.3 0.8 5l0 10c0 0.3-0.3 0.6-0.6 0.6H190c-0.3 0-0.6-0.3-0.6-0.6l0-8.4c0-0.7 0.1-2.3-0.1-3 c-0.2-1.1-0.9-1.4-1.8-1.4c-0.7 0-1.5 0.5-1.8 1.3c-0.3 0.8-0.3 2.1-0.3 3v8.4c0 0.3-0.3 0.6-0.6 0.6h-3.1c-0.3 0-0.6-0.3-0.6-0.6 v-8.4c0-1.8 0.3-4.4-1.9-4.4c-2.2 0-2.1 2.5-2.1 4.4v8.4C177.2 84.1 176.9 84.4 176.6 84.4z"/><path fill-rule="evenodd" clip-rule="evenodd" fill="#404041" d="M233.6 67.2c4.6 0 7 3.9 7 8.9c0 4.8-2.7 8.7-7 8.7 c-4.5 0-6.9-3.9-6.9-8.8C226.6 71 229.1 67.2 233.6 67.2z M233.6 70.4c-2.3 0-2.4 3.1-2.4 5c0 1.9 0 6.1 2.4 6.1 c2.4 0 2.5-3.3 2.5-5.4c0-1.3-0.1-2.9-0.5-4.2C235.3 70.8 234.6 70.4 233.6 70.4z"/><path fill-rule="evenodd" clip-rule="evenodd" fill="#404041" d="M246.6 84.4h-3.1c-0.3 0-0.6-0.3-0.6-0.6l0-15.8 c0-0.3 0.3-0.5 0.6-0.5h2.9c0.3 0 0.5 0.2 0.5 0.4v2.4h0.1c0.9-2.2 2.1-3.2 4.2-3.2c1.4 0 2.7 0.5 3.6 1.9 c0.8 1.3 0.8 3.4 0.8 4.9v10c0 0.3-0.3 0.5-0.6 0.5h-3.1c-0.3 0-0.5-0.2-0.5-0.5v-8.6c0-1.7 0.2-4.3-1.9-4.3 c-0.7 0-1.4 0.5-1.8 1.3c-0.4 1-0.5 1.9-0.5 3v8.5C247.1 84.1 246.9 84.4 246.6 84.4z"/><path fill-rule="evenodd" clip-rule="evenodd" fill="#404041" d="M205.5 76.8c0 1.2 0 2.2-0.6 3.3c-0.5 0.9-1.3 1.4-2.1 1.4 c-1.2 0-1.9-0.9-1.9-2.2c0-2.6 2.4-3.1 4.6-3.1V76.8z M208.6 84.4c-0.2 0.2-0.5 0.2-0.7 0.1c-1-0.9-1.2-1.2-1.8-2.1 c-1.7 1.7-2.9 2.2-5.1 2.2c-2.6 0-4.6-1.6-4.6-4.8c0-2.5 1.4-4.2 3.3-5c1.7-0.7 4-0.9 5.8-1.1v-0.4c0-0.7 0.1-1.6-0.4-2.2 c-0.4-0.6-1.1-0.8-1.7-0.8c-1.2 0-2.2 0.6-2.5 1.8c-0.1 0.3-0.3 0.6-0.5 0.6l-3-0.3c-0.3-0.1-0.5-0.3-0.5-0.6 c0.7-3.6 4-4.7 6.9-4.7c1.5 0 3.5 0.4 4.6 1.5c1.5 1.4 1.4 3.3 1.4 5.3v4.8c0 1.4 0.6 2.1 1.2 2.9c0.2 0.3 0.2 0.6 0 0.8 C210.3 82.8 209.2 83.8 208.6 84.4L208.6 84.4z"/><path fill-rule="evenodd" clip-rule="evenodd" fill="#404041" d="M165.1 76.8c0 1.2 0 2.2-0.6 3.3c-0.5 0.9-1.3 1.4-2.1 1.4 c-1.2 0-1.9-0.9-1.9-2.2c0-2.6 2.4-3.1 4.6-3.1V76.8z M168.2 84.4c-0.2 0.2-0.5 0.2-0.7 0.1c-1-0.9-1.2-1.2-1.8-2.1 c-1.7 1.7-2.9 2.2-5.1 2.2c-2.6 0-4.6-1.6-4.6-4.8c0-2.5 1.4-4.2 3.3-5c1.7-0.7 4-0.9 5.8-1.1v-0.4c0-0.7 0.1-1.6-0.4-2.2 c-0.4-0.6-1.1-0.8-1.7-0.8c-1.2 0-2.2 0.6-2.5 1.8c-0.1 0.3-0.3 0.6-0.5 0.6l-3-0.3c-0.3-0.1-0.5-0.3-0.5-0.6 c0.7-3.6 4-4.7 6.9-4.7c1.5 0 3.5 0.4 4.6 1.5c1.5 1.4 1.4 3.3 1.4 5.3v4.8c0 1.4 0.6 2.1 1.2 2.9c0.2 0.3 0.2 0.6 0 0.8 C169.9 82.8 168.8 83.8 168.2 84.4L168.2 84.4z"/></g></g></svg>